<svg xmlns="http://www.w3.org/2000/svg" viewBox="0 0 33.8667 33.8667">
  <path fill="#262626" d="M15.5727 6.2414c.002.002 1.3606 18.557 1.3606 18.557 2.4835.004 5.287.008 5.2865.008h.0202c.934-2.4376 2.8168-8.606.1416-13.3114-2.0863-3.6697-4.892-4.8008-6.8089-5.2534z"/>
  <path fill="#262626" d="m13.9526 11.3387.0191 3.4308s.6073.8938.34 1.8816l3.6624-2.5813zM9.2428 14.446l-2.9615 3.3704.3994 1.806c.065-.004.1226-.0122.1706-.0263.9475-.2783 1.3102-1.82 1.821-2.1193.617-.3614 1.6289-.059 2.3725-.354z"/>
  <path fill="#777474" d="M10.7389 3.47c-1.223.3246-1.068 2.1956-1.2397 2.6236-.1738.433-1.6434 1.2869-2.2 2.1471-.764 1.181-.845 2.6929-1.4505 3.9626-.8646 1.813-3.4483 3.5237-3.0933 5.1718.0585.2716.1934.5018.3741.7028l3.9331-1.4377 7.1138-8.9054z"/>
  <path fill="#565352" d="M10.8267 3.454a.1667.1667 0 0 0-.0455.004c-.0147.003-.028.008-.0424.0118.3222.919.6834 2.2451.3845 2.9353-.4518 1.0432-1.6433 1.4761-2.3146 2.3936-.8229 1.1247-.9503 2.6378-1.6619 3.836-.6985 1.176-1.7233 2.1267-2.526 3.2344-.4345.5997-1.1009 1.6108-1.4913 2.2086.417.4637 1.0811.7688 1.634 1.049.56.284 1.4415.5222 1.9172.4951.3239-1.1116.962-3.0618 1.5208-3.3176.5166-.2364 1.9504.3828 2.8433.8186.0176-.007.0359-.0125.0532-.0202 1.1279-.5004 2.8737-2.3332 2.8737-2.3332.9226-1.0497.9442-1.8285 1.2733-2.2123.704.6628.1347 3.1312-.9354 4.0954-.0845.3114-.2535.6318-.5586.9369-1.047 1.0466-2.0038 1.7414-3.5533 3.33-1.4765 1.5139-1.8953 2.959-1.9978 3.8654 0 0 4.6306.007 8.7334.0134.3341-.831.9173-2.2714 1.2955-3.1368 1.0757-2.4614 3.3489-4.7872 3.0143-7.443-.353-2.8008-4.1425-6.5616-5.669-7.9757-1.1011-.26-1.912-.2982-2.1202-.4625-.553-.4363-2.1238-2.3028-2.6273-2.326z"/>
  <path fill="#262626" d="M11.917 9.5851c.2282.6186-.3117 1.0704-.9088 1.1242-.2255.0203-.9143.051-1.1035.117-.2739.0958-.664.075-.4998-.2013.2198-.3702.6727-1.1196 1.1345-1.4738.5373-.4121 1.1848-.0892 1.3777.434z"/>
  <path fill="#777474" d="M15.1706 24.2076c-7.1929 0-9.1675.9094-9.6527 2.7389l9.6527-.0134 9.6526.0134c-.4851-1.8295-2.4598-2.7389-9.6526-2.7389z"/>
  <path fill="#565352" d="M15.1706 26.0561c-4.8327 0-7.816.2961-9.6527.8904-.2444.9216-.4662 2.1489-.1132 3.4664h19.5317c.353-1.3175.1312-2.5448-.1132-3.4664-1.8367-.5943-4.82-.8904-9.6526-.8904z"/>
  <path fill="#d3d3d3" d="M18.294 6.2414c-.002.002-1.3607 18.557-1.3607 18.557-2.4835.004-5.2869.008-5.2865.008h-.0202c-.9339-2.4376-2.8167-8.606-.1416-13.3114 2.0864-3.6697 4.892-4.8008 6.809-5.2534z"/>
  <path fill="#d3d3d3" d="m19.914 11.3387-.019 3.4308s-.6074.8938-.3401 1.8816l-3.6623-2.5813zm4.7098 3.1073 2.9616 3.3704-.3995 1.806c-.0649-.004-.1226-.0122-.1705-.0263-.9475-.2783-1.3103-1.82-1.821-2.1193-.617-.3614-1.629-.059-2.3725-.354z"/>
  <path fill="#fff" d="M23.1278 3.47c1.223.3246 1.068 2.1956 1.2397 2.6236.1737.433 1.6433 1.2869 2.1999 2.1471.764 1.181.845 2.6929 1.4505 3.9626.8647 1.813 3.4484 3.5237 3.0934 5.1718-.0585.2716-.1934.5018-.3742.7028l-3.933-1.4377-7.1138-8.9054z"/>
  <path fill="#f8f8f8" d="M23.04 3.454a.1667.1667 0 0 1 .0454.004c.0147.003.0281.008.0424.0118-.3221.919-.6833 2.2451-.3844 2.9353.4517 1.0432 1.6432 1.4761 2.3146 2.3936.8229 1.1247.9502 2.6378 1.6619 3.836.6985 1.176 1.7233 2.1267 2.526 3.2344.4345.5997 1.1008 1.6108 1.4913 2.2086-.4171.4637-1.0812.7688-1.634 1.049-.56.284-1.4415.5222-1.9172.4951-.324-1.1116-.962-3.0618-1.5208-3.3176-.5166-.2364-1.9504.3828-2.8433.8186-.0176-.007-.0359-.0125-.0532-.0202-1.128-.5004-2.8737-2.3332-2.8737-2.3332-.9226-1.0497-.9443-1.8285-1.2733-2.2123-.704.6628-.1348 3.1312.9353 4.0954.0845.3114.2535.6318.5586.9369 1.0471 1.0466 2.004 1.7414 3.5533 3.33 1.4766 1.5139 1.8953 2.959 1.9978 3.8654 0 0-4.6305.007-8.7333.0134-.3341-.831-.9173-2.2714-1.2955-3.1368-1.0758-2.4614-3.349-4.7872-3.0143-7.443.353-2.8008 4.1424-6.5616 5.6689-7.9757 1.1012-.26 1.912-.2982 2.1203-.4625.553-.4363 2.1238-2.3028 2.6272-2.326z"/>
  <path fill="#d3d3d3" d="M21.9496 9.5851c-.2281.6186.3118 1.0704.9089 1.1242.2255.0203.9143.051 1.1034.117.274.0958.664.075.5-.2013-.22-.3702-.6728-1.1196-1.1347-1.4738-.5372-.4121-1.1847-.0892-1.3776.434z"/>
  <path fill="#fff" d="M18.6961 24.2076c7.1928 0 9.1675.9094 9.6527 2.7389l-9.6527-.0134-9.6526.0134c.4851-1.8295 2.4598-2.7389 9.6526-2.7389z"/>
  <path fill="#f8f8f8" d="M18.6961 26.0561c4.8327 0 7.816.2961 9.6527.8904.2443.9216.4662 2.1489.1131 3.4664H8.9303c-.353-1.3175-.1312-2.5448.1132-3.4664 1.8366-.5943 4.82-.8904 9.6526-.8904z"/>
</svg>
