<svg xmlns="http://www.w3.org/2000/svg" viewBox="0 0 18.362 29.104"><g style="display:inline;stroke-width:.79375;stroke-dasharray:none"><path d="M16.934 5.662a4.414 4.414 0 0 0-4.415 4.414 4.414 4.414 0 0 0 1.642 3.433l-2.584 1.765.714 1.51h2.211s-.62 4.164-3.524 5.699c-2.903 1.535-2.83 5.722-2.83 5.722h17.57s.074-4.187-2.829-5.722c-2.903-1.535-3.524-5.698-3.524-5.698h2.21l.715-1.511-2.584-1.764a4.414 4.414 0 0 0 1.642-3.434 4.414 4.414 0 0 0-4.414-4.414Z" style="fill:#565352;fill-opacity:1;stroke:none;stroke-width:.79375;stroke-dasharray:none;stroke-opacity:.909804;stop-color:#000" transform="translate(-7.752 .502)"/><path d="M18.997 6.174c.548.5 1.185 1.426 1.185 3.027 0 2.808-3.248 4.309-3.248 4.309h2.772a4.414 4.414 0 0 0 1.642-3.434 4.414 4.414 0 0 0-2.35-3.902ZM19.706 13.51s.231.898.14 1.724a4.797 4.797 0 0 1-.48 1.55h2.21l.714-1.51zM14.502 16.785s2.044 2.957 3.962 4.457c1.653 1.294 4.734 1.947 5.554 2.102a4.347 4.347 0 0 0-1.129-.861c-2.903-1.535-3.524-5.698-3.524-5.698z" style="display:inline;fill:#454242;fill-opacity:1;stroke:none;stroke-width:.79375;stroke-dasharray:none;stroke-opacity:.909804;stop-color:#000" transform="translate(-7.752 .502)"/><path d="M14.263 17.82c-.382 1.336-1.3 3.613-3.285 4.663-2.903 1.535-2.83 5.722-2.83 5.722s.457-2.831 4.025-4.494c2.602-1.213 2.287-4.777 2.09-5.891zM14.484 13.51l-2.814 1.7h1.838zM16.926 5.662a4.414 4.414 0 0 0-4.407 4.414c.002.353.045.705.13 1.048 0 0 .326-1.795 1.567-3.356 1.242-1.561 2.71-2.106 2.71-2.106z" style="display:inline;fill:#777474;fill-opacity:1;stroke:none;stroke-width:.79375;stroke-dasharray:none;stroke-opacity:.909804;stop-color:#000" transform="translate(-7.752 .502)"/><path d="M16.934 5.662c-2.443-.06-4.602 2.21-4.407 4.647.068 1.233.664 2.43 1.634 3.2l-2.584 1.765.715 1.511h2.21c-.438 2.315-1.571 4.764-3.788 5.85-1.845 1.173-2.52 3.496-2.565 5.57h17.57c-.037-2.214-.845-4.746-2.964-5.796-1.979-1.17-2.97-3.455-3.39-5.624h2.21l.715-1.511-2.583-1.764c1.836-1.412 2.19-4.315.727-6.12a4.428 4.428 0 0 0-3.5-1.728z" style="display:inline;fill:none;stroke:#000;stroke-width:.79375;stroke-linecap:round;stroke-linejoin:round;stroke-dasharray:none;stroke-opacity:1;stop-color:#000" transform="translate(-7.752 .502)"/></g></svg>