<svg xmlns="http://www.w3.org/2000/svg" viewBox="0 0 23.191 29.104"><g style="stroke-width:.79375;stroke-dasharray:none"><path d="M219.27 47.796c.002.002 1.36 18.557 1.36 18.557l5.296.03c.934-2.437 2.828-8.628.153-13.333-2.087-3.67-4.892-4.801-6.81-5.254z" style="fill:#d3d3d3;fill-opacity:1;stroke:none;stroke-width:.79375;stroke-linecap:butt;stroke-linejoin:miter;stroke-dasharray:none;stroke-opacity:1" transform="translate(-206.023 -43.26)"/><path d="M214.436 45.025c-1.223.325-1.068 2.195-1.24 2.623-.174.433-1.643 1.287-2.2 2.148-.764 1.18-.845 2.693-1.45 3.962-.865 1.813-3.449 3.524-3.094 5.172.059.272.194.502.375.703l3.933-1.438 7.113-8.905z" style="fill:#fff;fill-opacity:1;stroke:none;stroke-width:.79375;stroke-linecap:butt;stroke-linejoin:miter;stroke-dasharray:none;stroke-opacity:1" transform="translate(-206.023 -43.26)"/><path d="m217.65 52.894.019 3.43s.607.894.34 1.882l3.662-2.581zM212.94 56l-2.962 3.371.4 1.806a.772.772 0 0 0 .17-.026c.948-.278 1.31-1.82 1.821-2.12.617-.36 1.63-.058 2.373-.353z" style="fill:#d3d3d3;fill-opacity:1;stroke:none;stroke-width:.79375;stroke-linecap:butt;stroke-linejoin:miter;stroke-dasharray:none;stroke-opacity:1" transform="translate(-206.023 -43.26)"/><path d="M215.614 51.14c.228.619-.312 1.07-.909 1.124-.225.02-.914.051-1.103.117-.274.096-.664.075-.5-.201.22-.37.673-1.12 1.134-1.474.538-.412 1.185-.09 1.378.434z" style="fill:#f0f;fill-opacity:1;stroke:none;stroke-width:.79375;stroke-miterlimit:4;stroke-dasharray:none;stroke-opacity:.909804;stop-color:#000" transform="translate(-206.023 -43.26)"/><path d="M214.524 45.009c.024.85.773 2.156.203 3.14-.713 1.152-2.199 1.654-2.675 2.991-.57 1.355-.853 2.868-1.863 3.997-1.073 1.278-2.157 2.551-3.026 3.983-.827.764.658 1.156 1.193 1.509.604.205 1.82.965 2.12.215.347-1.004.6-2.105 1.317-2.918 1.06-.455 2.135.66 3.11.68 1.174-.682 2.2-1.627 3.072-2.662.5-.402.601-1.743 1.084-1.687.473 1.119-.007 2.412-.59 3.401-.564.665-.85 1.524-1.605 2.046-1.756 1.664-3.921 3.158-4.725 5.547-.249.611-.445 1.347.422 1.113l8.07-.01c.778-1.934 1.518-3.899 2.674-5.647.978-1.621 2.056-3.509 1.53-5.47-.74-2.401-2.507-4.305-4.19-6.1-.714-.706-1.363-1.6-2.474-1.556-1.024.044-1.604-.824-2.254-1.465-.43-.39-.828-.917-1.393-1.107z" style="fill:#f8f8f8;fill-opacity:1;stroke:none;stroke-width:.79375;stroke-linecap:butt;stroke-linejoin:miter;stroke-dasharray:none;stroke-opacity:1" transform="translate(-206.023 -43.26)"/><path d="M215.614 51.14c.228.619-.312 1.07-.909 1.124-.225.02-.914.051-1.103.117-.274.096-.664.075-.5-.201.22-.37.673-1.12 1.134-1.474.538-.412 1.185-.09 1.378.434z" style="display:inline;fill:#262626;fill-opacity:1;stroke:none;stroke-width:.79375;stroke-miterlimit:4;stroke-dasharray:none;stroke-opacity:.909804;stop-color:#000" transform="translate(-206.023 -43.26)"/><path d="M214.436 45.025c-1.428.39-.726 2.217-1.579 3.02-.995.797-2.083 1.638-2.414 2.937-.443 1.432-.716 2.99-1.795 4.117-.82 1.1-2.103 2.063-2.229 3.521.1 1.385 1.676 1.895 2.769 2.35 1.109.6 2.241-.108 2.63-1.21.347-1.104 1.585-.902 2.481-.971 1.26-.285 2.152-1.342 3.079-2.17.716-.612.918 1.51.432 2.06-.997 1.278-2.387 2.19-3.494 3.371-1.222 1.14-2.234 2.619-2.428 4.315 4.68-.007 9.359-.023 14.038.019 1.403-3.78 2.197-8.08.789-11.976-1.263-3.282-4.14-5.998-7.648-6.657-1.029-.177-2.157-.245-2.763-1.24-.583-.518-1.072-1.303-1.868-1.486z" style="fill:none;stroke:#000;stroke-width:.79375;stroke-linecap:round;stroke-linejoin:round;stroke-dasharray:none;stroke-opacity:1" transform="translate(-206.023 -43.26)"/><path d="M218.868 65.763c-7.193 0-9.168.909-9.653 2.738h19.305c-.485-1.829-2.46-2.738-9.652-2.738z" style="fill:#fff;fill-opacity:1;stroke:none;stroke-width:.79375;stroke-linecap:butt;stroke-linejoin:miter;stroke-miterlimit:4;stroke-dasharray:none;stroke-opacity:1" transform="translate(-206.023 -43.26)"/><path d="M218.868 67.611c-4.833 0-7.816.296-9.653.89-.244.922-.466 2.15-.113 3.467h19.531c.353-1.318.132-2.545-.113-3.467-1.836-.594-4.82-.89-9.652-.89z" style="fill:#f8f8f8;fill-opacity:1;stroke:none;stroke-width:.79375;stroke-linecap:butt;stroke-linejoin:miter;stroke-miterlimit:4;stroke-dasharray:none;stroke-opacity:1" transform="translate(-206.023 -43.26)"/><path d="M218.868 65.762c-2.5.04-5.058.004-7.476.727-1.04.305-2.043 1.055-2.223 2.189-.274 1.07-.36 2.213-.067 3.29h19.531c.344-1.354.193-2.839-.372-4.11-.762-1.25-2.344-1.539-3.674-1.773-1.891-.28-3.81-.314-5.72-.323z" style="fill:none;stroke:#000;stroke-width:.79375;stroke-linecap:round;stroke-linejoin:round;stroke-dasharray:none;stroke-opacity:1" transform="translate(-206.023 -43.26)"/></g></svg>