<svg xmlns="http://www.w3.org/2000/svg" viewBox="0 0 20.693 29.104"><g style="stroke-width:.79375;stroke-dasharray:none"><path d="m329.41 33.379 6.532 12.486 2.547.152-1.266-11.004Z" style="display:inline;fill:#d3d3d3;fill-opacity:1;stroke:none;stroke-width:.79375;stroke-miterlimit:4;stroke-dasharray:none;stroke-opacity:.909804;stop-color:#000" transform="translate(-321.285 -22.966)"/><path d="M325.572 27.259c-.13.02-.255.04-.362.062-.558.115-1.409.263-1.545.45-.105.143-.631 3.637.646 5.79zM331.323 26.581c-.559.001-1.693.021-1.824.155-.11.112-.17 1.475-.2 2.472l3.358-2.615c-.52-.017-1.026-.011-1.026-.011s-.122-.002-.308-.001zM336.833 27.187c-.217.001-.381.026-.424.089-.082.12-.296 1.64-.407 2.46 0 0 2.277-2.369 2.276-2.37-.076-.015-.156-.03-.225-.045a6.684 6.684 0 0 0-1.22-.134z" style="display:inline;fill:#fff;fill-opacity:1;stroke:none;stroke-width:.79375;stroke-miterlimit:4;stroke-dasharray:none;stroke-opacity:.909804;stop-color:#000" transform="translate(-321.285 -22.966)"/><path d="m329.141 33.917-3.101 1.096-1.266 11.004h11.765c-.185-1.594-.784-5.889-2.071-7.85-1.053-1.604-3.95-3.436-5.327-4.25z" style="display:inline;fill:#f8f8f8;fill-opacity:1;stroke:none;stroke-width:.79375;stroke-miterlimit:4;stroke-dasharray:none;stroke-opacity:.909804;stop-color:#000" transform="translate(-321.285 -22.966)"/><path d="m326.04 35.013-1.266 11.004c4.571.036 9.146-.272 13.715 0l-1.266-11.004-5.592-2.011-5.591 2.011z" style="display:inline;fill:none;stroke:#000;stroke-width:.79375;stroke-linecap:round;stroke-linejoin:round;stroke-dasharray:none;stroke-opacity:1;stop-color:#000" transform="translate(-321.285 -22.966)"/><path d="m338.945 27.51-3.877 7.235c1.487.151 1.928.369 2.26.24 3.244-1.264 2.405-7.029 2.27-7.215-.071-.097-.337-.183-.653-.26z" style="display:inline;fill:#fff;fill-opacity:1;stroke:none;stroke-width:.79375;stroke-miterlimit:4;stroke-dasharray:none;stroke-opacity:.909804;stop-color:#000" transform="translate(-321.285 -22.966)"/><path d="M332.66 26.593c-.687.414-1.537.95-2.054 1.382-.42.351-.913.835-1.308 1.234-.018.587-.025 1.047-.025 1.047h-1.942s-.364-2.815-.478-2.98c-.091-.134-.74-.097-1.28-.017-.283.71-.626 1.632-.772 2.252-.258 1.097-.418 3.012-.49 4.05.37.626.893 1.139 1.623 1.423.511.2 1.26-.421 5.697-.36 1.544-.021 2.64.04 3.437.12.768-.493 2.179-1.472 2.7-2.317.796-1.287 1.094-3.993 1.177-4.917-.214-.052-.45-.1-.667-.144-.23.22-.74.707-1.091 1.071-.371.383-.974 1.061-1.186 1.3l-.07.519h-1.941s-.052-3.342-.226-3.52c-.086-.087-.602-.126-1.104-.143z" style="display:inline;fill:#f8f8f8;fill-opacity:1;stroke:none;stroke-width:.79375;stroke-miterlimit:4;stroke-dasharray:none;stroke-opacity:.909804;stop-color:#000" transform="translate(-321.285 -22.966)"/><path d="M331.491 26.57c-.692.024-1.744-.23-2.048.35-.14 1.118-.138 2.223-.17 3.336h-1.943c-.148-.994.086-2.147-.477-2.98-.33-.488-1.19-.061-1.752.067-.582.133-1.509.078-1.542.954-.07 1.82-.136 3.776.822 5.38.454.661 1.165 1.41 2.034 1.326 2.477-.477 5.015-.406 7.523-.343 1.044.035 2.074.211 3.105.363.912-.115 1.613-.897 2.026-1.673.805-1.66.847-3.592.58-5.389-.184-.565-.953-.567-1.487-.617-.632-.06-1.853-.58-1.863.39-.14.798-.262 1.768-.367 2.522h-1.943c-.04-1.15-.015-2.312-.195-3.451-.75-.327-1.532-.26-2.303-.235z" style="display:inline;fill:none;stroke:#000;stroke-width:.79375;stroke-linecap:round;stroke-linejoin:round;stroke-dasharray:none;stroke-opacity:1;stop-color:#000" transform="translate(-321.285 -22.966)"/><path d="M331.631 45.469c-7.192 0-9.167.909-9.652 2.738h19.305c-.485-1.83-2.46-2.738-9.653-2.738z" style="fill:#fff;fill-opacity:1;stroke:none;stroke-width:.79375;stroke-linecap:butt;stroke-linejoin:miter;stroke-miterlimit:4;stroke-dasharray:none;stroke-opacity:1" transform="translate(-321.285 -22.966)"/><path d="M331.631 47.317c-4.832 0-7.816.296-9.652.89-.245.922-.466 2.15-.113 3.467h19.531c.353-1.318.131-2.545-.113-3.467-1.837-.594-4.82-.89-9.653-.89z" style="fill:#f8f8f8;fill-opacity:1;stroke:none;stroke-width:.79375;stroke-linecap:butt;stroke-linejoin:miter;stroke-miterlimit:4;stroke-dasharray:none;stroke-opacity:1" transform="translate(-321.285 -22.966)"/><path d="M331.631 45.468c-2.5.04-5.057.004-7.475.727-1.04.305-2.043 1.055-2.223 2.189-.274 1.07-.36 2.213-.067 3.29h19.531c.344-1.355.193-2.839-.372-4.11-.762-1.25-2.344-1.539-3.674-1.773-1.892-.28-3.81-.314-5.72-.323z" style="fill:none;stroke:#000;stroke-width:.79375;stroke-linecap:round;stroke-linejoin:round;stroke-dasharray:none;stroke-opacity:1" transform="translate(-321.285 -22.966)"/><path d="M331.631 45.469c-7.192 0-9.167.909-9.652 2.738h19.305c-.485-1.83-2.46-2.738-9.653-2.738z" style="fill:none;fill-opacity:1;stroke:none;stroke-width:.79375;stroke-linecap:butt;stroke-linejoin:miter;stroke-miterlimit:4;stroke-dasharray:none;stroke-opacity:1" transform="translate(-321.285 -22.966)"/><path d="M331.631 47.317c-4.832 0-7.816.296-9.652.89-.245.922-.466 2.15-.113 3.467h19.531c.353-1.318.131-2.545-.113-3.467-1.837-.594-4.82-.89-9.653-.89z" style="fill:none;fill-opacity:1;stroke:none;stroke-width:.79375;stroke-linecap:butt;stroke-linejoin:miter;stroke-miterlimit:4;stroke-dasharray:none;stroke-opacity:1" transform="translate(-321.285 -22.966)"/></g></svg>