<svg xmlns="http://www.w3.org/2000/svg" viewBox="0 0 27.006 29.104"><g style="stroke-width:.79375;stroke-dasharray:none"><path d="m266.85 21.408 2.555-3.953c-1.86-.289-3.813 1.902-2.556 3.953zM273.16 16.135c.004-.01 2.74-4.2 2.74-4.2-1.983-.317-4.071 2.008-2.74 4.2zM280.973 15.608l2.874-3.686c-1.772-.205-3.581 1.647-2.874 3.686zM287.61 20.94l2.675-3.496c-1.576-.185-3.414 1.482-2.676 3.496z" style="display:inline;fill:#fff;fill-opacity:1;stroke:none;stroke-width:.79375;stroke-miterlimit:4;stroke-dasharray:none;stroke-opacity:.909804;stop-color:#000" transform="translate(-266.038 -10.22)"/><path d="m291.142 17.669-5.04 8.557-7.76 6.927 7.549.019 4.32-10.52c2.705-.155 3.38-3.867.931-4.983zM284.875 12.22l-1.621 2.241-.515 6.165 1.978 2.103-.236-5.4a2.782 2.782 0 0 0 .394-5.108zM276.853 12.244l-1.43 2 1.031 5.593 2.034.869-1.208-3.845c1.54-1.238 1.331-3.672-.427-4.617zM270.227 17.701l-.981 2.752 1.248 1.96 1.72.289-1.034-1.109a2.614 2.614 0 0 0-.953-3.892z" style="display:inline;fill:#d3d3d3;fill-opacity:1;stroke:none;stroke-width:.79375;stroke-miterlimit:4;stroke-dasharray:none;stroke-opacity:.909804;stop-color:#000" transform="translate(-266.038 -10.22)"/><path d="M283.846 11.922c-.657.516-1.341 1.103-1.741 1.598-.414.512-.862 1.47-1.132 2.088.17.487.473.922.884 1.253l-2.288 7.282-1.082-3.443c-.902-1.204-2.21-3.174-2.29-4.582-.04-.718.7-1.27.829-1.991.091-.515-.053-1.321-.177-1.885-.29-.155-.61-.26-.95-.304-.594.53-1.263 1.178-1.62 1.695-.428.619-.88 1.82-1.116 2.492.334.553.851.99 1.493 1.205l-.333 7.633-2.109-2.261c-.781-.384-1.847-.99-2.07-1.534-.361-.878.24-1.32.27-1.99.018-.407-.104-1.08-.186-1.474a2.591 2.591 0 0 0-.823-.25c-.642.478-1.345 1.066-1.699 1.58-.393.57-.698 1.698-.857 2.374a2.61 2.61 0 0 0 2.078 1.244l4.337 10.608 5.079-.107c1.16-.612 4.696-2.536 6.31-4.132 2.077-2.053 2.88-5.138 4.834-7.31.61-.678 1.622-.979 1.949-1.831.241-.63-.087-1.668-.294-2.212a2.595 2.595 0 0 0-.855-.225c-.547.492-1.114 1.037-1.463 1.475-.407.51-.902 1.423-1.215 2.027.085.23.202.448.35.648l-3.145 3.37-.098-2.242c-.59-1.406-1.592-4.144-1.235-5.926.175-.876 1.136-1.81 1.402-2.663.159-.51.069-1.384-.008-1.911a2.784 2.784 0 0 0-1.028-.299z" style="display:inline;fill:#f8f8f8;fill-opacity:1;stroke:none;stroke-width:.79375;stroke-miterlimit:4;stroke-dasharray:none;stroke-opacity:.909804;stop-color:#000" transform="translate(-266.038 -10.22)"/><path d="M275.528 11.907c-1.935-.03-3.269 2.185-2.483 4.022.405.948 1.611 1.4 1.611 1.4l-.333 7.634-3.143-3.37c1.083-1.357.329-3.617-1.35-4.047-1.952-.7-4.08 1.585-3.18 3.476.348.982 1.388 1.535 2.304 1.694l4.31 10.544 12.627-.089 4.32-10.519c1.9 0 3.032-2.344 2.1-3.942-.874-1.501-3.12-1.666-4.232-.342-.776.924-.82 2.308-.12 3.225l-3.145 3.37-.333-7.634c1.807-.521 2.516-3.009 1.263-4.407-1.066-1.393-3.39-1.316-4.37.135-.909 1.128-.662 2.93.483 3.804l-2.288 7.281-2.29-7.281c1.555-1.145 1.288-3.824-.464-4.639-.394-.219-.84-.3-1.287-.315z" style="display:inline;fill:none;stroke:#000;stroke-width:.79375;stroke-linecap:round;stroke-linejoin:round;stroke-dasharray:none;stroke-opacity:1;stop-color:#000" transform="translate(-266.038 -10.22)"/><path d="M279.57 32.722c-7.194 0-9.168.91-9.653 2.739 6.435-.02 19.305 0 19.305 0-.485-1.83-2.46-2.74-9.653-2.74z" style="fill:#fff;fill-opacity:1;stroke:none;stroke-width:.79375;stroke-linecap:butt;stroke-linejoin:miter;stroke-miterlimit:4;stroke-dasharray:none;stroke-opacity:1" transform="translate(-266.038 -10.22)"/><path d="M279.57 34.57c-4.833 0-7.817.296-9.653.89-.245.922-.467 2.15-.114 3.467h19.532c.353-1.318.131-2.545-.113-3.466-1.837-.595-4.82-.89-9.653-.89z" style="fill:#f8f8f8;fill-opacity:1;stroke:none;stroke-width:.79375;stroke-linecap:butt;stroke-linejoin:miter;stroke-miterlimit:4;stroke-dasharray:none;stroke-opacity:1" transform="translate(-266.038 -10.22)"/><path d="M279.57 32.722c-2.5.038-5.059.004-7.476.726-1.04.305-2.043 1.055-2.223 2.189-.274 1.07-.361 2.214-.067 3.29h19.531c.344-1.354.193-2.838-.372-4.11-.762-1.25-2.344-1.538-3.674-1.773-1.892-.28-3.81-.315-5.72-.322z" style="fill:none;stroke:#000;stroke-width:.79375;stroke-linecap:round;stroke-linejoin:round;stroke-dasharray:none;stroke-opacity:1" transform="translate(-266.038 -10.22)"/></g></svg>