<svg xmlns="http://www.w3.org/2000/svg" viewBox="0 0 26.718 29.104"><g style="stroke-width:1.32292;stroke-dasharray:none"><path d="m395.334 19.43-2.17.844 4.25-.274v-.57z" style="fill:#fff;fill-opacity:1;stroke:none;stroke-width:.79375;stroke-linecap:butt;stroke-linejoin:miter;stroke-dasharray:none;stroke-opacity:1" transform="translate(-380.101 -15.79)"/><path d="M391.577 17.051v2.38h-2.08v3.393l3.685-2.01 2.152-3.763z" style="fill:#fff;fill-opacity:1;stroke:none;stroke-width:.79375;stroke-linecap:butt;stroke-linejoin:miter;stroke-dasharray:none;stroke-opacity:1" transform="translate(-380.101 -15.79)"/><path d="m395.334 17.051-.82.618h-2.034v2.29h-2.338v2.014l-.645.851h2.08v3.326h3.757v-3.326h2.08V20h-2.923l.843-.57z" style="display:inline;fill:#f8f8f8;fill-opacity:1;stroke:none;stroke-width:.79375;stroke-dasharray:none;stroke-opacity:.909804;stop-color:#000" transform="translate(-380.101 -15.79)"/><path d="M391.577 17.051v2.38h-2.08v3.393h2.08v3.325h3.757v-3.325h2.08V19.43h-2.08v-2.379z" style="display:inline;fill:none;stroke:#000;stroke-width:.79375;stroke-linecap:round;stroke-linejoin:miter;stroke-dasharray:none;stroke-opacity:1;stop-color:#000" transform="translate(-380.101 -15.79)"/><path d="M386.904 23.66c-1.678-.007-3.376.466-4.687 1.905-2.276 2.5-2.2 5.505-.356 8.125.002.004 7.239-9.777 7.239-9.777a10.76 10.76 0 0 0-2.196-.253z" style="display:inline;fill:#fff;fill-opacity:1;stroke:none;stroke-width:.79375;stroke-dasharray:none;stroke-opacity:.909804;stop-color:#000" transform="translate(-380.101 -15.79)"/><path d="m403.83 24.79-5.728 14.065h2.272c.546-.872 1.418-1.956 2.82-3.153 3.492-2.98 4.389-6.965 1.5-10.137a5.715 5.715 0 0 0-.864-.776z" style="display:inline;fill:#d3d3d3;fill-opacity:1;stroke:none;stroke-width:.79375;stroke-dasharray:none;stroke-opacity:.909804;stop-color:#000" transform="translate(-380.101 -15.79)"/><path d="M400.008 23.66c-2.304.038-4.54.82-6.552 1.902a16.395 16.395 0 0 0-4.344-1.646c-2.191.291-4.582.714-6.23 2.318-1.531 1.692-1.56 4.168-1.243 6.302-.02 1.203.872 2.038 1.676 2.807 1.208 1.035 2.377 2.151 3.223 3.512h11.564c1.192-1.495 2.494-2.906 3.982-4.112 1.525-1.474 3.022-3.369 3.01-5.593-.112-1.523-.686-2.963-1.264-4.36-1.096-.809-2.475-1.142-3.822-1.13zm-12.032 5.04c1.028.035 2.007.443 2.884.957v4.878h-1.472c-1.259-1.17-2.622-2.403-3.215-4.062-.429-1.171.802-1.84 1.803-1.773zm10.96 0c1.16-.175 2.39.95 1.687 2.105-.69 1.485-1.907 2.642-3.1 3.73h-1.47v-4.878c.874-.513 1.856-.923 2.883-.957z" style="display:inline;fill:#f8f8f8;fill-opacity:1;stroke:none;stroke-width:.79375;stroke-dasharray:none;stroke-opacity:.909804;stop-color:#000" transform="translate(-380.101 -15.79)"/><path d="M386.904 23.66c-2.105-.078-4.221.94-5.35 2.742-1.318 1.816-1.377 4.346-.3 6.29 1.109 2.323 3.536 3.55 4.941 5.65.527 1.035 2.007.28 2.962.513h11.217c1.009-1.724 2.655-2.893 4.006-4.314 1.685-1.82 2.643-4.577 1.616-6.958-.855-2.133-2.903-3.785-5.24-3.892-2.556-.182-5.073.685-7.3 1.871-2.01-1.08-4.252-1.866-6.552-1.902zm1.071 5.04c1.028.035 2.008.442 2.884.957v4.877l-1.525-.046c-1.273-1.212-2.72-2.476-3.209-4.228-.247-1.092.96-1.607 1.85-1.56zm10.961 0c1.378-.226 2.48 1.279 1.526 2.446-.734 1.316-1.828 2.389-2.939 3.388h-1.47v-4.877c.874-.514 1.858-.924 2.883-.957z" style="display:inline;fill:none;stroke:#000;stroke-width:.79375;stroke-linecap:round;stroke-linejoin:round;stroke-dasharray:none;stroke-opacity:1;stop-color:#000" transform="translate(-380.101 -15.79)"/><path d="M393.456 38.292c-7.193 0-9.168.909-9.653 2.738h19.305c-.485-1.829-2.46-2.738-9.652-2.738z" style="fill:#fff;fill-opacity:1;stroke:none;stroke-width:.79375;stroke-linecap:butt;stroke-linejoin:miter;stroke-miterlimit:4;stroke-dasharray:none;stroke-opacity:1" transform="translate(-380.101 -15.79)"/><path d="M393.456 40.14c-4.833 0-7.816.296-9.653.89-.244.922-.466 2.15-.113 3.467h19.532c.353-1.318.13-2.545-.114-3.467-1.836-.594-4.82-.89-9.652-.89z" style="fill:#f8f8f8;fill-opacity:1;stroke:none;stroke-width:.79375;stroke-linecap:butt;stroke-linejoin:miter;stroke-miterlimit:4;stroke-dasharray:none;stroke-opacity:1" transform="translate(-380.101 -15.79)"/><path d="M393.456 38.292c-2.5.038-5.058.004-7.476.726-1.039.305-2.043 1.055-2.222 2.189-.275 1.07-.361 2.214-.068 3.29h19.532c.343-1.354.193-2.839-.373-4.11-.762-1.25-2.344-1.538-3.674-1.773-1.891-.28-3.81-.315-5.72-.322z" style="fill:none;stroke:#000;stroke-width:.79375;stroke-linecap:round;stroke-linejoin:round;stroke-dasharray:none;stroke-opacity:1" transform="translate(-380.101 -15.79)"/></g></svg>