<svg xmlns="http://www.w3.org/2000/svg" viewBox="0 0 20.656 29.104"><g style="stroke-width:.79375;stroke-dasharray:none"><path d="M10.34 61.95a2.325 2.325 0 0 0-2.324 2.325 2.325 2.325 0 0 0 1.143 1.996c-3.333 1.135-6.45 7.024-6.45 9.914 0 3.378 1.263 6.029 3.289 7.55a54.577 54.577 0 0 1 4.763-.197c1.485.001 2.977.053 4.303.158 1.982-1.464 3.246-3.965 3.246-7.25 0-3.132-1.798-7.01-4.42-9.02-.494.782-.995 1.775-1.234 2.852-.627 2.827-.805 6.1-.805 6.1l-2.617-.019s.124-3.516.82-6.657c.299-1.345.855-2.529 1.424-3.475a14.02 14.02 0 0 1 1.165-1.653 2.325 2.325 0 0 0 .021-.3 2.325 2.325 0 0 0-2.324-2.324z" style="color:#000;fill:#f8f8f8;fill-opacity:1;stroke:none;stroke-width:.79375;stroke-miterlimit:4;stroke-dasharray:none" transform="translate(-.434 -60.43)"/><path d="M11.537 62.287c-.497 1.755-.95 3.528-1.58 5.243-.674 1.663-1.896 3.155-2.024 5.002-.042 1.047.437 2.022.853 2.955.137.264.324.705.45.832.128-2.389.369-4.786.942-7.114.472-1.7 1.355-3.267 2.465-4.63a2.324 2.324 0 0 0-1.106-2.288z" style="color:#000;fill:#d3d3d3;fill-opacity:1;stroke:none;stroke-width:.79375;stroke-miterlimit:4;stroke-dasharray:none" transform="translate(-.434 -60.43)"/><path d="M10.34 61.95a2.32 2.32 0 0 0-2.099 3.318c.208-.438.325-.913.545-1.346.27-.562.676-1.046 1.13-1.468.166-.16.334-.32.48-.5l-.028-.002-.028-.002zM9.16 66.271c-3.312 1.5-5.194 4.972-6.206 8.302-.37 1.334-.365 4.14.346 4.557.62-1.727.663-3.61 1.384-5.314.979-2.782 2.714-5.21 4.475-7.545z" style="color:#000;fill:#fff;fill-opacity:1;stroke:none;stroke-width:.79375;stroke-miterlimit:4;stroke-dasharray:none" transform="translate(-.434 -60.43)"/><path d="M16.594 70.595c.204 2.143.37 4.347-.14 6.46-.404 1.579-1.65 2.735-2.841 3.76-1.234 1.024-2.572 1.916-3.95 2.734 1.801-.032 3.605.009 5.4.147 1.987-1.444 3.038-3.872 3.209-6.274.223-2.383-.495-4.775-1.678-6.827z" style="color:#000;fill:#d3d3d3;fill-opacity:1;stroke:none;stroke-width:.79375;stroke-miterlimit:4;stroke-dasharray:none" transform="translate(-.434 -60.43)"/><path d="M2.32 84.493c-2.236 1.305-1.288 4.644-1.288 4.644H20.49s.948-3.34-1.289-4.644c-2.184-1.274-14.695-1.274-16.88 0z" style="fill:#f8f8f8;fill-opacity:1;stroke:none;stroke-width:.79375;stroke-linecap:butt;stroke-linejoin:miter;stroke-miterlimit:4;stroke-dasharray:none;stroke-opacity:1" transform="translate(-.434 -60.43)"/><path d="M10.34 61.95c-1.547-.058-2.61 1.627-2.169 3.126.212.718.988 1.195.988 1.195-2.338 1.323-4.46 3.988-5.546 6.374-.713 1.577-1.105 3.33-.813 5.057.26 2.308 1.301 4.62 3.198 6.033l9.066-.04c2.656-1.947 3.602-5.534 3.128-8.68-.497-2.914-1.97-5.733-4.302-7.588-2.432 3.584-2.44 8.948-2.44 8.948l-2.217-.016c.159-2.604.373-5.243 1.129-7.752.502-1.47 1.627-2.626 2.281-4.032.574-1.234-.945-2.651-2.303-2.625z" style="fill:none;stroke:#000;stroke-width:.79375;stroke-linecap:round;stroke-linejoin:round;stroke-dasharray:none;stroke-opacity:1" transform="translate(-.434 -60.43)"/><path d="M2.32 84.493a2.76 2.76 0 0 0-1.109 1.2c8.289-.65 10.645-.663 19.1 0a2.76 2.76 0 0 0-1.11-1.2c-2.184-1.274-14.696-1.274-16.88 0z" style="fill:#fff;fill-opacity:1;stroke:none;stroke-width:.79375;stroke-miterlimit:4;stroke-dasharray:none;stroke-opacity:.909804;stop-color:#000" transform="translate(-.434 -60.43)"/><path d="M10.761 83.538c-2.556.039-5.15.056-7.649.65-1.286.25-2.151 1.476-2.244 2.736-.066.73-.056 1.577.208 2.213H20.49c.349-1.436.346-3.224-.82-4.303-.953-.815-2.286-.845-3.466-1.031-1.807-.2-3.626-.26-5.443-.265Z" style="fill:none;stroke:#000;stroke-width:.79375;stroke-linecap:round;stroke-linejoin:round;stroke-dasharray:none;stroke-opacity:1" transform="translate(-.434 -60.43)"/></g></svg>